<?xml version="1.0" encoding="utf-8"?>
<svg version="1.1" baseProfile="basic" width="25px" height="25px" xmlns="http://www.w3.org/2000/svg" xmlns:xlink="http://www.w3.org/1999/xlink" x="0px" y="0px" viewBox="0 0 100 27.623" xml:space="preserve">
  <g>
    <path d="M8.598,16.898c-4.658,0-8.448-3.791-8.448-8.449C0.15,3.791,3.94,0,8.598,0
	     c4.659,0,8.448,3.791,8.448,8.449C17.046,13.107,13.257,16.898,8.598,16.898z M8.598,1.27c-3.958,0-7.178,3.22-7.178,7.178
	     c0,3.959,3.22,7.179,7.178,7.179c3.959,0,7.18-3.221,7.18-7.179C15.778,4.491,12.557,1.27,8.598,1.27z"/>
    <polygon points="13.639,27.623 10.334,24.319 7.027,27.623 3.721,24.319 0.831,27.208 0,26.378
		     3.721,22.659 7.027,25.962 10.334,22.659 13.638,25.962 16.525,23.074 17.357,23.905 	"/>
  </g>
  <g>
    <path d="M28.104,16.761h-1.17V15.57h1.17V16.761z M28.104,23.369h-1.17V17.62h1.17V23.369z"/>
    <path d="M31.209,23.369h-1.17V17.62h1.17v0.501c0.167-0.334,0.736-0.657,1.336-0.657
	     c0.993,0,2.285,0.613,2.285,2.385v3.52h-1.17v-3.498c0-0.869-0.501-1.271-1.226-1.271c-0.725,0-1.226,0.402-1.226,1.271V23.369z"/>
    <path d="M36.309,21.531h1.204c0.089,0.568,0.635,0.824,1.259,0.824c0.512,0,0.947-0.134,0.947-0.602
	     c0-0.39-0.345-0.512-0.724-0.602l-1.093-0.279c-0.757-0.189-1.459-0.612-1.459-1.716c0-1.135,0.913-1.693,2.084-1.693
	     c1.236,0,2.094,0.558,2.206,1.839h-1.226c-0.089-0.502-0.523-0.713-1.059-0.713c-0.357,0-0.825,0.133-0.825,0.591
	     c0,0.344,0.335,0.457,0.646,0.535l1.059,0.267c1.048,0.268,1.571,0.713,1.571,1.805c-0.011,1.137-0.891,1.694-2.139,1.694
	     C37.435,23.481,36.376,22.846,36.309,21.531z"/>
    <path d="M44.021,21.698c0,0.423,0.078,0.545,0.535,0.545h0.881v1.126h-1.216c-0.958,0-1.37-0.468-1.37-1.371
	     v-3.276h-0.813V17.62h0.813v-1.304h1.17v1.304h1.416v1.102h-1.416V21.698z"/>
    <path d="M48.228,16.761h-1.169V15.57h1.169V16.761z M48.228,23.369h-1.169V17.62h1.169V23.369z"/>
    <path d="M51.794,21.698c0,0.423,0.077,0.545,0.534,0.545h0.88v1.126h-1.214
	     c-0.959,0-1.371-0.468-1.371-1.371v-3.276h-0.814V17.62h0.814v-1.304h1.171v1.304h1.414v1.102h-1.414V21.698z"/>
    <path d="M55.97,21.074c0,0.869,0.502,1.27,1.193,1.27c0.691,0,1.193-0.402,1.193-1.27V17.62h1.169v5.749
	     h-1.169v-0.546c-0.168,0.335-0.736,0.658-1.337,0.658c-0.991,0-2.217-0.691-2.217-2.384V17.62h1.169V21.074z"/>
    <path d="M62.898,21.698c0,0.423,0.079,0.545,0.536,0.545h0.88v1.126H63.1c-0.959,0-1.371-0.468-1.371-1.371
	     v-3.276h-0.814V17.62h0.814v-1.304h1.169v1.304h1.416v1.102h-1.416V21.698z"/>
    <path d="M67.4,21.698c0,0.423,0.079,0.545,0.536,0.545h0.88v1.126H67.6c-0.957,0-1.369-0.468-1.369-1.371
	     v-3.276h-0.814V17.62h0.814v-1.304H67.4v1.304h1.416v1.102H67.4V21.698z"/>
  </g>
  <g>
    <path d="M32.349,4.074h1.193v7.8H32.36V6.459l-1.604,3.32h-0.981l-1.605-3.32v5.415h-1.18v-7.8h1.192
	     l2.083,4.312L32.349,4.074z"/>
    <path d="M38.886,10.046h1.193c-0.2,1.527-1.437,1.94-2.362,1.94c-1.003,0-2.396-0.491-2.396-2.385V8.353
	     c0-1.894,1.392-2.385,2.396-2.385c1.002,0,2.395,0.491,2.395,2.385v1.035h-3.621v0.19c0,0.869,0.502,1.281,1.226,1.281
	     C38.295,10.859,38.731,10.593,38.886,10.046z M36.491,8.341v0.012h2.451V8.341c-0.011-0.836-0.512-1.248-1.225-1.248
	     C36.992,7.094,36.491,7.506,36.491,8.341z"/>
    <path d="M43.374,10.202c0,0.423,0.079,0.546,0.535,0.546h0.88v1.125h-1.215c-0.958,0-1.37-0.468-1.37-1.37
	     V7.227h-0.813V6.124h0.813V4.821h1.17v1.303h1.415v1.103h-1.415V10.202z"/>
    <path d="M49.832,10.046h1.193c-0.2,1.527-1.437,1.94-2.362,1.94c-1.003,0-2.396-0.491-2.396-2.385V8.353
	     c0-1.894,1.392-2.385,2.396-2.385c1.004,0,2.396,0.491,2.396,2.385v1.035h-3.623v0.19c0,0.869,0.502,1.281,1.226,1.281
	     C49.241,10.859,49.677,10.593,49.832,10.046z M47.436,8.341v0.012h2.452V8.341c-0.011-0.836-0.512-1.248-1.225-1.248
	     C47.937,7.094,47.436,7.506,47.436,8.341z"/>
    <path d="M52.67,8.353c0-1.894,1.393-2.385,2.396-2.385c1.003,0,2.396,0.491,2.396,2.385v1.248
	     c0,1.894-1.392,2.385-2.396,2.385c-1.003,0-2.396-0.491-2.396-2.385V8.353z M56.293,8.374c0-0.869-0.502-1.281-1.226-1.281
	     c-0.723,0-1.225,0.412-1.225,1.281v1.204c0,0.869,0.502,1.281,1.225,1.281c0.725,0,1.226-0.412,1.226-1.281V8.374z"/>
    <path d="M61.504,7.16c-0.723,0-1.225,0.401-1.225,1.269v3.444H59.11V6.124h1.169v0.557
	     c0.166-0.335,0.736-0.658,1.337-0.658h0.446V7.16H61.504z"/>
    <path d="M63.264,8.353c0-1.894,1.392-2.385,2.396-2.385c1.002,0,2.396,0.491,2.396,2.385v1.248
	     c0,1.894-1.394,2.385-2.396,2.385c-1.003,0-2.396-0.491-2.396-2.385V8.353z M66.884,8.374c0-0.869-0.502-1.281-1.225-1.281
	     c-0.725,0-1.226,0.412-1.226,1.281v1.204c0,0.869,0.502,1.281,1.226,1.281c0.723,0,1.225-0.412,1.225-1.281V8.374z"/>
    <path d="M70.915,10.202c0,0.423,0.079,0.546,0.536,0.546h0.179v1.125h-0.512
	     c-0.959,0-1.371-0.468-1.371-1.37V4.074h1.169V10.202z"/>
    <path d="M73.075,8.353c0-1.894,1.392-2.385,2.396-2.385c1.003,0,2.396,0.491,2.396,2.385v1.248
	     c0,1.894-1.393,2.385-2.396,2.385c-1.003,0-2.396-0.491-2.396-2.385V8.353z M76.698,8.374c0-0.869-0.502-1.281-1.226-1.281
	     c-0.723,0-1.225,0.412-1.225,1.281v1.204c0,0.869,0.502,1.281,1.225,1.281c0.725,0,1.226-0.412,1.226-1.281V8.374z"/>
    <path d="M87.266,5.266h-1.169V4.074h1.169V5.266z M87.266,11.873h-1.169V6.124h1.169V11.873z"/>
    <path d="M88.848,10.035h1.203c0.089,0.569,0.636,0.825,1.26,0.825c0.512,0,0.946-0.134,0.946-0.602
	     c0-0.389-0.346-0.512-0.725-0.602l-1.091-0.279c-0.759-0.189-1.46-0.612-1.46-1.716c0-1.137,0.914-1.694,2.083-1.694
	     c1.237,0,2.096,0.557,2.207,1.838h-1.226c-0.089-0.501-0.523-0.712-1.059-0.712c-0.355,0-0.823,0.134-0.823,0.591
	     c0,0.346,0.334,0.457,0.646,0.534l1.057,0.268c1.048,0.268,1.573,0.713,1.573,1.806c-0.013,1.136-0.893,1.694-2.14,1.694
	     C89.972,11.986,88.916,11.35,88.848,10.035z"/>
    <path d="M96.123,8.464l2.149-2.34h1.416l-2.073,2.25L100,11.873h-1.36l-1.805-2.652l-0.712,0.78v1.872
	     h-1.171v-7.8h1.171V8.464z"/>
    <path d="M83.012,11.629v-0.636c-0.166,0.335-0.736,0.657-1.337,0.657c-0.991,0-2.283-0.612-2.283-2.384
	     V8.353c0-1.773,1.293-2.385,2.283-2.385c0.602,0,1.171,0.323,1.337,0.658V6.124h1.171v5.526c0,1.895-1.394,2.385-2.396,2.385
	     c-0.948,0-2.217-0.434-2.374-2.049h1.182c0.123,0.624,0.58,0.924,1.193,0.924C82.51,12.91,83.012,12.497,83.012,11.629z
	     M80.561,9.244c0,0.869,0.502,1.27,1.226,1.27c0.723,0,1.225-0.401,1.225-1.27V8.374c0-0.869-0.502-1.269-1.225-1.269
	     c-0.725,0-1.226,0.401-1.226,1.269V9.244z"/>
  </g>
  <image src="/assets/images/logo-met.png" xlink:href=""></image>
</svg>
