<?xml version="1.0" encoding="utf-8"?>
<svg version="1.1" baseProfile="basic" xmlns="http://www.w3.org/2000/svg" xmlns:xlink="http://www.w3.org/1999/xlink" width="25px" height="25px" x="0px" y="0px" viewBox="0 0 100 36" xml:space="preserve">
  <g>
    <rect y="0.7" width="12.3" height="35.1"/>
    <rect x="35.1" y="0.7" width="12.3" height="35.1"/>
    <rect x="62.8" y="0.7" width="12.3" height="35.1"/>
    <path d="M55.1,0c-3.8,0-7,3-7,7s3,7,7,7c3.8,0,7-3.2,7-7C61.9,3.1,58.9,0,55.1,0"/>
    <path d="M90.3,19.9c-0.7-1.3-0.7-2,0-3.2L100,0.8H86.6c0,0-8.1,13.2-9.3,15c-1.1,1.8-1.1,3,0,4.8
	     s9.1,15,9.1,15h13.4C100,35.8,90.5,20,90.3,19.9"/>
    <path d="M27.7,6.3c-0.7-3.2-3.4-5.5-6.8-5.5H13l7.9,35.1h13.4L27.7,6.3z"/>
  </g>
  <image src="/assets/images/logo-nrk.png" xlink:href=""></image>
</svg>
