<?xml version="1.0" encoding="utf-8"?>
<svg version="1.1" xmlns="http://www.w3.org/2000/svg" xmlns:xlink="http://www.w3.org/1999/xlink" x="0px" y="0px" width="25px" height="25px" viewBox="0 0 100 100" xml:space="preserve">
  <circle fill="#00b9f1" cx="50" cy="50" r="50"/>
  <g>
    <path fill="#FFFFFF" d="M80,64.4c-1.7-1.8-4.4-5.5-4.4-5.5c2.4-0.7,4.5-1.9,6.2-3.6c2.7-2.7,4.2-6.6,4.2-10.7
		            c0-4.3-1.9-8.2-4.8-10.6c-3-2.4-6.8-3.6-10.8-3.6h-7c-6.6,0-11.9,5.3-11.9,11.9v29.5h8v-8.4c0-2.2,1.8-4,4-4h3.2l0,0L75.1,70
		            l0.6,0.7c0.6,0.6,1.5,1,2.4,1.1v0h0.2c0.1,0,0.1,0,0.2,0s0.1,0,0.2,0h4.7l0-6.4C83.4,65.4,81.4,66,80,64.4z M71.1,51.6h-7.7
		            c-1.4,0-2.7,0.6-4,1V42.4c0-2.2,1.8-4,4-4h7c2.5,0,4.5,0.7,5.7,1.8c1.2,1.1,1.9,2.3,2,4.5c0,2.3-0.8,3.9-1.9,5.1
		            C75,50.8,73.4,51.6,71.1,51.6z"/>
    <path fill="#FFFFFF" d="M46.3,31.8h-7.9l0,12.9c-0.2,4.8-4.6,6.4-8.2,6.4c-4.1-0.1-8.4-2.3-8.4-8.6V31.8H14v10.7
		            c0,4.9,1.7,9,4.9,12c2.9,2.7,6.8,4.2,11.1,4.3l0,0c0.1,0,0.1,0,0.2,0s0.1,0,0.2,0l0,0c2.9-0.1,7.1-1.9,8-3.6v3.5
		            c0,4.7-6,7.8-7.6,8.6l0.1,0.1c0,0-0.1,0-0.1,0.1l5,6c2.9-1.7,10.5-5.1,10.5-15.7V31.8L46.3,31.8z"/>
  </g>
  <image src="/assets/images/logo-yr-75.png" xlink:href=""></image>
</svg>
